<svg id="Camada_1" data-name="Camada 1" xmlns="http://www.w3.org/2000/svg" viewBox="0 0 538.36 694.57"><defs><style>.cls-1{fill:#2d2d2d;}</style></defs><title>impressaoDigital</title><path class="cls-1" d="M482.8,585.22a7.1,7.1,0,0,0,0-14.2c-26,0-45.6,11.48-45.6,26.71s19.6,26.71,45.6,26.71,45.6-11.48,45.6-26.71a7.11,7.11,0,0,0-14.21,0c0,5-12.52,12.51-31.39,12.51s-31.39-7.53-31.39-12.51S463.93,585.22,482.8,585.22Z" transform="translate(-243.16 -36.73)"/><path class="cls-1" d="M450.05,547.27a137.53,137.53,0,0,0-28.14,8.29c-23.61,10-37.15,25.38-37.15,42.17,0,30,43.07,53.43,98,53.43s98-23.47,98-53.43c0-23.22-25.65-43-65.34-50.47a7.1,7.1,0,1,0-2.62,14c31.65,5.93,53.76,20.94,53.76,36.51,0,18.94-33.69,39.22-83.83,39.22S399,616.67,399,597.73c0-10.66,10.65-21.53,28.48-29.09a122.9,122.9,0,0,1,25.22-7.41,7.1,7.1,0,1,0-2.62-14Z" transform="translate(-243.16 -36.73)"/><path class="cls-1" d="M392.48,533.34c-38.23,15.09-60.16,38.55-60.16,64.39,0,44.94,66.1,80.14,150.48,80.14s150.47-35.2,150.47-80.14-66.09-80.14-150.47-80.14a275.11,275.11,0,0,0-53.26,5.06,7.11,7.11,0,1,0,2.76,13.94,260.85,260.85,0,0,1,50.5-4.8c73.86,0,136.27,30.2,136.27,65.94s-62.41,65.94-136.27,65.94-136.27-30.2-136.27-65.94c0-19.4,19.12-38.53,51.16-51.17a7.1,7.1,0,0,0-5.21-13.22Z" transform="translate(-243.16 -36.73)"/><path class="cls-1" d="M482.79,490.88c-113.78,0-202.9,46.93-202.9,106.84a55.1,55.1,0,0,0,.43,6.93,7.1,7.1,0,1,0,14.09-1.81,39.79,39.79,0,0,1-.31-5.12c0-50.21,86.41-92.64,188.69-92.64s188.72,42.43,188.72,92.64-86.42,92.67-188.72,92.67c-54,0-105.62-11.62-141.63-31.89a7.1,7.1,0,1,0-7,12.37c38.07,21.44,92.23,33.73,148.6,33.73,113.79,0,202.92-47,202.92-106.88S596.58,490.88,482.79,490.88Z" transform="translate(-243.16 -36.73)"/><path class="cls-1" d="M654,681.38c-45.75,23-106.55,35.72-171.21,35.72-12,0-24.17-.45-36.15-1.34-.15,0-.3,0-.46,0s-.42-.06-.64-.06l-.27,0c-.18,0-.35,0-.53.06a7.2,7.2,0,0,0-1.05.19l-.24.08a7.06,7.06,0,0,0-4.78,5.06.75.75,0,0,0-.05.16,6.76,6.76,0,0,0,.12,3.54,5.42,5.42,0,0,0,.26.6,7.61,7.61,0,0,0,.55,1.19,7,7,0,0,0,.49.59,7.34,7.34,0,0,0,.77.89,7.51,7.51,0,0,0,.68.47,6,6,0,0,0,.84.58l.11,0,.08.05a6.1,6.1,0,0,0,1.34.48c.11,0,.23,0,.34.06a6.6,6.6,0,0,0,.87.15c12.5.94,25.19,1.41,37.72,1.41,66.83,0,129.9-13.22,177.59-37.23A7.1,7.1,0,1,0,654,681.38Z" transform="translate(-243.16 -36.73)"/><path class="cls-1" d="M660.38,501.37A7.1,7.1,0,0,0,654,514.06c35.88,18.05,59.78,41.53,67.3,66.13a7.1,7.1,0,0,0,6.79,5,7.19,7.19,0,0,0,2.08-.31,7.1,7.1,0,0,0,4.71-8.87C726.09,547.29,700.33,521.47,660.38,501.37Z" transform="translate(-243.16 -36.73)"/><path class="cls-1" d="M612.6,497.35a7.1,7.1,0,0,0,4.34-13.53c-40.18-12.87-86.57-19.68-134.15-19.68-96.78,0-184,27.76-227.5,72.43a7.1,7.1,0,0,0,10.17,9.92c40.35-41.4,125.66-68.14,217.33-68.14C528.92,478.35,573.81,484.92,612.6,497.35Z" transform="translate(-243.16 -36.73)"/><path class="cls-1" d="M482.79,437.44a586.45,586.45,0,0,0-77.16,5,7.1,7.1,0,0,0,1.88,14.08,571.52,571.52,0,0,1,75.28-4.91c121.86,0,232.52,38.5,275.36,95.79a7.11,7.11,0,1,0,11.38-8.51C723.43,477.27,610.88,437.44,482.79,437.44Z" transform="translate(-243.16 -36.73)"/><path class="cls-1" d="M367.32,463.51a7.11,7.11,0,0,0-3-13.89c-44.58,9.61-84.71,24.77-116,43.86a7.1,7.1,0,0,0,7.39,12.13C285.66,487.34,324.26,472.78,367.32,463.51Z" transform="translate(-243.16 -36.73)"/><path class="cls-1" d="M777.33,489.58C710.07,440.21,600,410.73,482.79,410.73c-79.19,0-154.25,13-217,37.46a7.1,7.1,0,1,0,5.16,13.24c61.17-23.88,134.44-36.49,211.88-36.49,114.26,0,221.23,28.45,286.14,76.09a7.1,7.1,0,1,0,8.4-11.45Z" transform="translate(-243.16 -36.73)"/><path class="cls-1" d="M752,451a7,7,0,0,0,3,.66,7.1,7.1,0,0,0,3-13.55C699.89,411.3,628.67,393.63,552,387a7.1,7.1,0,0,0-1.23,14.15C625.82,407.64,695.41,424.88,752,451Z" transform="translate(-243.16 -36.73)"/><path class="cls-1" d="M265,430.53a7.32,7.32,0,0,0,2.2-.35c64.31-20.92,138.88-32,215.64-32a7.11,7.11,0,0,0,0-14.21c-78.23,0-154.32,11.3-220,32.67a7.1,7.1,0,0,0,2.2,13.86Z" transform="translate(-243.16 -36.73)"/><path class="cls-1" d="M777.17,411.26c-82.58-34.8-187.12-54-294.38-54-82.69,0-163.8,11.27-234.58,32.6a7.1,7.1,0,0,0,4.1,13.6c69.46-20.93,149.16-32,230.48-32,105.41,0,208,18.77,288.86,52.85a7.1,7.1,0,0,0,5.52-13.09Z" transform="translate(-243.16 -36.73)"/><path class="cls-1" d="M252.05,373c71.76-18.73,149.39-28.23,230.74-28.23C587,344.8,687,360.78,772,391a6.87,6.87,0,0,0,2.38.42,7.11,7.11,0,0,0,2.38-13.8c-86.51-30.77-188.17-47-294-47-82.56,0-161.4,9.66-234.32,28.7A7.1,7.1,0,1,0,252.05,373Z" transform="translate(-243.16 -36.73)"/><path class="cls-1" d="M251.86,343.42c72.76-16.83,150.45-25.36,230.93-25.36,102.4,0,202.52,14.23,289.52,41.14a7.27,7.27,0,0,0,2.1.31,7.1,7.1,0,0,0,2.1-13.88c-88.35-27.33-189.91-41.77-293.72-41.77-81.55,0-160.32,8.65-234.13,25.72a7.1,7.1,0,0,0,3.2,13.84Z" transform="translate(-243.16 -36.73)"/><path class="cls-1" d="M776.29,314.8c-89.55-24.63-191-37.65-293.5-37.65a7.11,7.11,0,0,0,0,14.21c101.2,0,201.39,12.84,289.73,37.13a6.89,6.89,0,0,0,1.89.26,7.1,7.1,0,0,0,1.88-13.95Z" transform="translate(-243.16 -36.73)"/><path class="cls-1" d="M271.83,296a7.1,7.1,0,0,0,1.28,14.09,7.23,7.23,0,0,0,1.3-.12,1135.74,1135.74,0,0,1,171.44-18,7.11,7.11,0,0,0,6.89-7.32,7.19,7.19,0,0,0-7.32-6.88A1151,1151,0,0,0,271.83,296Z" transform="translate(-243.16 -36.73)"/><path class="cls-1" d="M251.75,285.7c73.78-14,151.51-21.05,231-21.05C584.43,264.65,682,276,772.7,298.51a7.21,7.21,0,0,0,1.71.21,7.11,7.11,0,0,0,1.71-14C684.26,262,585.58,250.45,482.79,250.45c-80.41,0-159,7.16-233.68,21.29a7.1,7.1,0,1,0,2.64,14Z" transform="translate(-243.16 -36.73)"/><path class="cls-1" d="M254.16,256.91a1356.12,1356.12,0,0,1,228.63-19c100.5,0,197.68,10.39,288.81,30.88a7,7,0,0,0,1.56.17,7.1,7.1,0,0,0,1.56-14c-92.16-20.72-190.38-31.22-291.93-31.22-79.08,0-156.81,6.45-231,19.19a7.1,7.1,0,0,0,2.4,14Z" transform="translate(-243.16 -36.73)"/><path class="cls-1" d="M259.89,227.92a1471.05,1471.05,0,0,1,222.9-16.7c98.22,0,193.87,9.3,284.3,27.64a6.84,6.84,0,0,0,1.42.14,7.1,7.1,0,0,0,1.4-14.06C678.56,206.41,582,197,482.79,197a1483.93,1483.93,0,0,0-225.06,16.88,7.1,7.1,0,1,0,2.16,14Z" transform="translate(-243.16 -36.73)"/><path class="cls-1" d="M269.29,198.76a1583.52,1583.52,0,0,1,213.5-14.28c94.76,0,187.61,8.16,276,24.24a7,7,0,0,0,1.28.11,7.1,7.1,0,0,0,1.27-14.09c-89.2-16.23-182.91-24.46-278.52-24.46a1597.16,1597.16,0,0,0-215.42,14.41,7.1,7.1,0,1,0,1.92,14.07Z" transform="translate(-243.16 -36.73)"/><path class="cls-1" d="M566.64,152.68a7.09,7.09,0,0,0,6.72,7.46,1635.19,1635.19,0,0,1,172.82,18.2,7.3,7.3,0,0,0,1.14.09,7.1,7.1,0,0,0,1.11-14.11A1647.38,1647.38,0,0,0,574.1,146,7.08,7.08,0,0,0,566.64,152.68Z" transform="translate(-243.16 -36.73)"/><path class="cls-1" d="M482.79,143.58c-53,0-106.14,2.41-157.84,7.18a7.1,7.1,0,0,0,.64,14.17l.66,0c51.27-4.72,103.94-7.12,156.54-7.12,13.56,0,27.29.16,40.81.48a7.1,7.1,0,0,0,.33-14.2C510.3,143.74,496.46,143.58,482.79,143.58Z" transform="translate(-243.16 -36.73)"/><path class="cls-1" d="M301.32,140.13a1819.18,1819.18,0,0,1,395.31,3.59,6.06,6.06,0,0,0,.85.05,7.1,7.1,0,0,0,.84-14.15A1832,1832,0,0,0,299.89,126a7.1,7.1,0,1,0,1.43,14.13Z" transform="translate(-243.16 -36.73)"/><path class="cls-1" d="M326.18,110.71c51.45-4.22,104.14-6.37,156.61-6.37,58.35,0,116.81,2.64,173.76,7.84.22,0,.43,0,.65,0A7.1,7.1,0,0,0,657.84,98c-57.38-5.24-116.27-7.9-175-7.9-52.85,0-105.93,2.16-157.77,6.41a7.1,7.1,0,0,0,1.16,14.16Z" transform="translate(-243.16 -36.73)"/><path class="cls-1" d="M467.13,63.49a7.11,7.11,0,0,0,.06,14.21h.05a2024,2024,0,0,1,203.55,8.66l.67,0a7.11,7.11,0,0,0,.66-14.18c-62.11-5.82-125.8-8.78-189.33-8.78Q474.95,63.43,467.13,63.49Z" transform="translate(-243.16 -36.73)"/><path class="cls-1" d="M378.15,80.31h.37c18.71-1,37.76-1.67,56.64-2.11a7.1,7.1,0,0,0-.33-14.2c-19,.44-38.2,1.16-57,2.13a7.1,7.1,0,0,0,.36,14.19Z" transform="translate(-243.16 -36.73)"/><path class="cls-1" d="M501.69,51c39.12.34,78.51,1.77,117.09,4.24a3.62,3.62,0,0,0,.46,0,7.1,7.1,0,0,0,.45-14.19c-38.83-2.49-78.49-3.93-117.87-4.28a7.21,7.21,0,0,0-7.17,7A7.12,7.12,0,0,0,501.69,51Z" transform="translate(-243.16 -36.73)"/><path class="cls-1" d="M412.87,52.07h.24c21.3-.71,43.32-1.09,65.46-1.13a7.11,7.11,0,0,0,0-14.21h0c-22.29,0-44.46.43-65.9,1.14a7.1,7.1,0,0,0,.23,14.2Z" transform="translate(-243.16 -36.73)"/></svg>